# xmcd
#
# Track frame offsets:
#	150
#	10728
#	23267
#	41853
#	56955
#	71546
#	88514
#	105400
#	120480
#	139804
#
# Disc length: 2104 seconds
# Revision: 0
# Processed by: cddbd v1.5.2PL0 Copyright (c) Steve Scherf et al.
# Submitted via: dBpowerAMP V12.0
#
DISCID=7a08360a
DTITLE=Dennis Ellsworth - Romantic As It Gets
DYEAR=2014
DGENRE=Americana
TTITLE0=Shakin' On The Plank
TTITLE1=Full Moon Blues
TTITLE2=Ghosts Of Love
TTITLE3=Make It Alright
TTITLE4=Skyline River Valley Dream
TTITLE5=Stay True
TTITLE6=Shines The Sun In Your Mind
TTITLE7=Mercy Doll
TTITLE8=Beauty Is Sad
TTITLE9=Dancing All Alone
EXTD=
EXTT0=
EXTT1=
EXTT2=
EXTT3=
EXTT4=
EXTT5=
EXTT6=
EXTT7=
EXTT8=
EXTT9=
PLAYORDER=
